<svg xmlns="http://www.w3.org/2000/svg" viewBox="0 0 437.9 278.1"><defs><style>.cls-1{fill:#fff;}</style></defs><title>Logo1</title><g id="Layer_2" data-name="Layer 2"><g id="Início"><path class="cls-1" d="M218.4,167.5q-4,5.9-11.9,5.9a15.1,15.1,0,0,1-11.7-5,19.1,19.1,0,0,1,0-24.4q4.5-5,12.1-5a13.2,13.2,0,0,1,11.6,5.9V126.1h5v46.7h-5Zm-11.3,1.3a10.6,10.6,0,0,0,8.5-3.7,14.8,14.8,0,0,0,0-17.9,10.6,10.6,0,0,0-8.5-3.7,11.1,11.1,0,0,0-8.7,3.7,14.3,14.3,0,0,0,0,17.9A11.1,11.1,0,0,0,207.1,168.8Z"/><path class="cls-1" d="M258.1,167.5q-4,5.9-11.9,5.9a15.1,15.1,0,0,1-11.7-5,19.1,19.1,0,0,1,0-24.4q4.5-5,12.1-5a13.2,13.2,0,0,1,11.6,5.9v-5.4h5v33.3h-5Zm-11.3,1.3a10.6,10.6,0,0,0,8.5-3.7,14.8,14.8,0,0,0,0-17.9,10.6,10.6,0,0,0-8.5-3.7,11.1,11.1,0,0,0-8.7,3.7,14.3,14.3,0,0,0,0,17.9A11.1,11.1,0,0,0,246.8,168.8Z"/><path class="cls-1" d="M194.4,189.8l-35.7,88.3H147.1l-35.7-88.3h10.9l30.5,76.9,30.5-76.9Z"/><path class="cls-1" d="M227,269q13.5,0,19.3-11.2h10.9a32.2,32.2,0,0,1-11,14.7q-7.5,5.6-19.4,5.6-15.1,0-24.5-10t-9.2-24.4q0-14.8,8.8-24.4t24.3-10q14.9,0,24.3,10t8.8,24.4v4H203.4a24.2,24.2,0,0,0,7.3,15.2Q217.2,269,227,269Zm-.8-50.7a22.1,22.1,0,0,0-15.5,5.7,23.7,23.7,0,0,0-7.2,14.3h45.3a23.7,23.7,0,0,0-7.2-14.3A22.1,22.1,0,0,0,226.2,218.4Z"/><path class="cls-1" d="M281.6,278.1h-10V184.8h10Z"/><path class="cls-1" d="M308.9,184.8v37.1a33.5,33.5,0,0,1,8.8-8.1,21.5,21.5,0,0,1,11.9-3.3,31.7,31.7,0,0,1,11.5,1.9,23.3,23.3,0,0,1,8.4,5.6q8.3,8.1,8.3,21.5v38.8h-10V239.6q0-9.2-5.2-14.7a17.8,17.8,0,0,0-13.5-5.5,19.9,19.9,0,0,0-14.3,5.6,19.6,19.6,0,0,0-5.9,14.7v38.4h-10V184.8Z"/><path class="cls-1" d="M437.9,267.5l-10.6,10.6-23.4-23.4-23.4,23.4-10.6-10.6,23.4-23.4-23.4-23.4L380.4,210l23.4,23.4L427.3,210l10.6,10.6-23.4,23.4Z"/><path class="cls-1" d="M58.3,0V59.1q0,12.8-6.4,20.9T29.5,89.3Q16,89.3,8,81.6A26.8,26.8,0,0,1,0,64.7H10.4a16.8,16.8,0,0,0,5.5,10q5.3,4.9,14.1,4.9,10.7,0,15.2-7.1,3.1-4.9,3.1-13.9V0Z"/><path class="cls-1" d="M102.7,20.5q14.9,0,24.3,10t8.8,24.4q0,14.8-8.8,24.4t-24.3,10q-14.9,0-24.3-10T69.6,54.9q0-14.8,8.8-24.4T102.7,20.5Zm0,59.7q10.8,0,17.1-7.5t6-17.9q0-10.8-6-17.9t-17.1-7.5q-10.8,0-17.1,7.5t-6,17.9q0,10.8,6,17.9T102.7,80.3Z"/><path class="cls-1" d="M203,32.3V21.6h10V86.3q0,14.4-8.2,21.9t-22.1,7.5q-13.9,0-21.7-5.3a26.4,26.4,0,0,1-10.6-14.1h11.1q4.3,10.4,19.5,10.4,11.6,0,16.8-5.3T203,85.6V76.4q-8.1,11.9-23.9,11.9t-23.5-9.9q-8.8-9.6-8.8-24t8.8-24q9.1-9.9,24.2-9.9T203,32.3ZM180.4,79.2a23.4,23.4,0,0,0,9.7-1.9,22.4,22.4,0,0,0,7.3-5.3q6-6.9,6-17.6t-6-17.6q-6.5-7.2-17.1-7.2t-17.3,7.2q-6.3,7.1-6.3,17.6T163.1,72Q169.6,79.2,180.4,79.2Z"/><path class="cls-1" d="M258.7,32.1a22.3,22.3,0,1,1-22.2,22.3,22.3,22.3,0,0,1,22.2-22.2m0-13a35.3,35.3,0,1,0,35.3,35.3,35.3,35.3,0,0,0-35.2-35.2Z"/></g></g></svg>