<?xml version="1.0" encoding="utf-8"?>
<!-- Generator: Adobe Illustrator 21.1.0, SVG Export Plug-In . SVG Version: 6.00 Build 0)  -->
<svg version="1.1" id="Layer_1" xmlns="http://www.w3.org/2000/svg" xmlns:xlink="http://www.w3.org/1999/xlink" x="0px" y="0px"
	 viewBox="0 0 1600 2235" style="enable-background:new 0 0 1600 2235;" xml:space="preserve">
<style type="text/css">
	.st0{fill:url(#SVGID_1_);}
	.st1{fill:none;stroke:url(#SVGID_2_);stroke-width:18;stroke-miterlimit:10;}
</style>
<linearGradient id="SVGID_1_" gradientUnits="userSpaceOnUse" x1="-635.8975" y1="1024.7676" x2="-635.8975" y2="1021.1159" gradientTransform="matrix(-1600 0 0 198.0004 -1016636 -202184.4063)">
	<stop  offset="0" style="stop-color:#FF9068"/>
	<stop  offset="1" style="stop-color:#FFD400"/>
</linearGradient>
<path class="st0" d="M1600,121C1289,121,1190.1-0.3,789,0C389,0,289,121,0,121v2114h1600C1600,2235,1600,150,1600,121z"/>
<linearGradient id="SVGID_2_" gradientUnits="userSpaceOnUse" x1="801.236" y1="6.8" x2="801.236" y2="2229.1001" gradientTransform="matrix(1 0 0 -1 0 2236)">
	<stop  offset="0" style="stop-color:#FF9068;stop-opacity:0.4"/>
	<stop  offset="0.1622" style="stop-color:#FF9560;stop-opacity:0.4973"/>
	<stop  offset="0.4176" style="stop-color:#FFA449;stop-opacity:0.6505"/>
	<stop  offset="0.7323" style="stop-color:#FFBC25;stop-opacity:0.8394"/>
	<stop  offset="1" style="stop-color:#FFD400"/>
</linearGradient>
<path class="st1" d="M72.3,200.1c13.8,0,24.9,11.1,24.9,24.9s-11.1,24.9-24.9,24.9S47.4,238.8,47.4,225S58.5,200.1,72.3,200.1z
	 M732.6,15.9c5.1,0,9.3,4.2,9.3,9.3s-4.2,9.3-9.3,9.3s-9.3-4.2-9.3-9.3S727.5,15.9,732.6,15.9z M613.1,81.9c5.1,0,9.3,4.2,9.3,9.3
	s-4.2,9.3-9.3,9.3s-9.3-4.2-9.3-9.3S608,81.9,613.1,81.9z M657.9,206.4c5.1,0,9.3,4.2,9.3,9.3s-4.2,9.3-9.3,9.3s-9.3-4.2-9.3-9.3
	S652.8,206.4,657.9,206.4z M762.5,284.8c5.1,0,9.3,4.2,9.3,9.3s-4.2,9.3-9.3,9.3s-9.3-4.2-9.3-9.3S757.4,284.8,762.5,284.8z
	 M847.1,24.6c5.1,0,9.3,4.2,9.3,9.3s-4.2,9.3-9.3,9.3s-9.3-4.2-9.3-9.3S842,24.6,847.1,24.6z M366.7,232.5c5.1,0,9.3,4.2,9.3,9.3
	s-4.2,9.3-9.3,9.3s-9.3-4.2-9.3-9.3S361.6,232.5,366.7,232.5z M233.5,201.4c5.1,0,9.3,4.2,9.3,9.3s-4.2,9.3-9.3,9.3
	s-9.3-4.2-9.3-9.3S228.4,201.4,233.5,201.4z M1566.6,201.4c5.1,0,9.3,4.2,9.3,9.3s-4.2,9.3-9.3,9.3s-9.3-4.2-9.3-9.3
	S1561.5,201.4,1566.6,201.4z M1482,206.4c5.1,0,9.3,4.2,9.3,9.3s-4.2,9.3-9.3,9.3s-9.3-4.2-9.3-9.3S1476.9,206.4,1482,206.4z
	 M1155.8,161.5c5.1,0,9.3,4.2,9.3,9.3s-4.2,9.3-9.3,9.3s-9.3-4.2-9.3-9.3S1150.7,161.5,1155.8,161.5z M1266.6,210.1
	c5.1,0,9.3,4.2,9.3,9.3s-4.2,9.3-9.3,9.3s-9.3-4.2-9.3-9.3S1261.5,210.1,1266.6,210.1z M1072.4,73.2c5.1,0,9.3,4.2,9.3,9.3
	s-4.2,9.3-9.3,9.3s-9.3-4.2-9.3-9.3S1067.3,73.2,1072.4,73.2z M323.1,87.5l8,8l-11.7,11.7l11.7,11.7l-8,8l-11.7-11.7L299.6,127l-8-8
	l11.8-11.8l-11.8-11.8l8-8l11.8,11.8L323.1,87.5z M779.9,132.3l8,8L776.2,152l11.7,11.7l-8,8L768.3,160l-11.8,11.8l-8-8l11.8-11.8
	l-11.8-11.8l8-8l11.8,11.8L779.9,132.3z M942.9,92.5l8,8l-11.7,11.7l11.7,11.7l-8,8l-11.7-11.7L919.4,132l-8-8l11.8-11.8l-11.8-11.8
	l8-8l11.8,11.8L942.9,92.5z M1395.3,161.3v11.4h-16.5v16.5h-11.3v-16.5h-16.6v-11.4h16.6v-16.6h11.3v16.6H1395.3z M548.9,228.5v11.4
	h-16.5v16.5h-11.3v-16.5h-16.6v-11.4h16.6v-16.6h11.3v16.6H548.9z M486.6,110.3v11.4h-16.5v16.5h-11.3v-16.5h-16.6v-11.4h16.6V93.6
	h11.3v16.6h16.5V110.3z M1253,106.5v11.4h-16.5v16.5h-11.3v-16.5h-16.6v-11.4h16.6V89.9h11.3v16.6H1253z M921.8,439.3
	c13.8,0,24.9,11.1,24.9,24.9s-11.1,24.9-24.9,24.9s-24.9-11.1-24.9-24.9S908,439.3,921.8,439.3z M1083.7,434.3
	c13.8,0,24.9,11.1,24.9,24.9s-11.1,24.9-24.9,24.9s-24.9-11.1-24.9-24.9S1069.9,434.3,1083.7,434.3z M921.8,663.3
	c13.8,0,24.9,11.1,24.9,24.9s-11.1,24.9-24.9,24.9s-24.9-11.1-24.9-24.9S908,663.3,921.8,663.3z M1021.4,271.2
	c13.8,0,24.9,11.1,24.9,24.9s-11.1,24.9-24.9,24.9c-13.8,0-24.9-11.1-24.9-24.9S1007.6,271.2,1021.4,271.2z M1538.6,500.9
	c5.1,0,9.3,4.2,9.3,9.3c0,5.1-4.2,9.3-9.3,9.3s-9.3-4.2-9.3-9.3C1529.3,505.1,1533.5,500.9,1538.6,500.9z M1519.9,428.1
	c5.1,0,9.3,4.2,9.3,9.3s-4.2,9.3-9.3,9.3s-9.3-4.2-9.3-9.3S1514.8,428.1,1519.9,428.1z M1475.1,568.8c5.1,0,9.3,4.2,9.3,9.3
	s-4.2,9.3-9.3,9.3s-9.3-4.2-9.3-9.3S1470,568.8,1475.1,568.8z M1519.9,693.2c5.1,0,9.3,4.2,9.3,9.3s-4.2,9.3-9.3,9.3
	s-9.3-4.2-9.3-9.3S1514.8,693.2,1519.9,693.2z M1572.2,299.9c5.1,0,9.3,4.2,9.3,9.3s-4.2,9.3-9.3,9.3s-9.3-4.2-9.3-9.3
	S1567.1,299.9,1572.2,299.9z M1395.5,454.3c5.1,0,9.3,4.2,9.3,9.3s-4.2,9.3-9.3,9.3s-9.3-4.2-9.3-9.3S1390.4,454.3,1395.5,454.3z
	 M1025.8,577.5c5.1,0,9.3,4.2,9.3,9.3s-4.2,9.3-9.3,9.3s-9.3-4.2-9.3-9.3S1020.7,577.5,1025.8,577.5z M1095.5,688.3
	c5.1,0,9.3,4.2,9.3,9.3s-4.2,9.3-9.3,9.3s-9.3-4.2-9.3-9.3S1090.4,688.3,1095.5,688.3z M1035.1,839.1c5.1,0,9.3,4.2,9.3,9.3
	s-4.2,9.3-9.3,9.3s-9.3-4.2-9.3-9.3S1030,839.1,1035.1,839.1z M892.6,582.5c5.1,0,9.3,4.2,9.3,9.3s-4.2,9.3-9.3,9.3
	s-9.3-4.2-9.3-9.3S887.5,582.5,892.6,582.5z M1185,574.4l8,8l-11.7,11.7l11.7,11.7l-8,8l-11.7-11.7l-11.8,11.8l-8-8l11.8-11.8
	l-11.8-11.8l8-8l11.8,11.8L1185,574.4z M1144.6,765l8,8l-11.7,11.7l11.7,11.7l-8,8l-11.7-11.7l-11.8,11.8l-8-8l11.8-11.8l-11.8-11.8
	l8-8l11.8,11.8L1144.6,765z M1182.6,310.5l8,8l-11.7,11.7l11.7,11.7l-8,8l-11.7-11.7l-11.8,11.8l-8-8l11.8-11.8l-11.8-11.8l8-8
	l11.8,11.8L1182.6,310.5z M902.5,295.6l8,8l-11.7,11.7l11.7,11.7l-8,8l-11.7-11.7L879.1,335l-8-8l11.8-11.8l-11.8-11.8l8-8
	l11.8,11.8L902.5,295.6z M1450.2,304.3l8,8l-11.7,11.7l11.7,11.7l-8,8l-11.7-11.7l-11.8,11.8l-8-8l11.8-11.8l-11.8-11.8l8-8
	l11.8,11.8L1450.2,304.3z M1318.2,306.8l8,8l-11.7,11.7l11.7,11.7l-8,8l-11.7-11.7l-11.8,11.8l-8-8l11.8-11.8l-11.8-11.8l8-8
	l11.8,11.8L1318.2,306.8z M1262.2,442.4l8,8l-11.7,11.7l11.7,11.7l-8,8l-11.7-11.7l-11.8,11.8l-8-8l11.8-11.8l-11.8-11.8l8-8
	l11.8,11.8L1262.2,442.4z M1417.5,675.6V687H1401v16.5h-11.3V687h-16.6v-11.4h16.6V659h11.3v16.6H1417.5z M1348.6,597.2v11.4h-16.5
	V625h-11.3v-16.5h-16.6v-11.4h16.6v-16.6h11.3v16.6h16.5V597.2z M381.6,471.6c13.8,0,24.9,11.1,24.9,24.9s-11.1,24.9-24.9,24.9
	s-24.9-11.1-24.9-24.9S367.8,471.6,381.6,471.6z M94.7,553.8c5.1,0,9.3,4.2,9.3,9.3s-4.2,9.3-9.3,9.3s-9.3-4.2-9.3-9.3
	S89.6,553.8,94.7,553.8z M214.2,505.3c5.1,0,9.3,4.2,9.3,9.3s-4.2,9.3-9.3,9.3s-9.3-4.2-9.3-9.3S209.1,505.3,214.2,505.3z
	 M590.1,346c5.1,0,9.3,4.2,9.3,9.3s-4.2,9.3-9.3,9.3s-9.3-4.2-9.3-9.3S585,346,590.1,346z M628.7,451.8c5.1,0,9.3,4.2,9.3,9.3
	s-4.2,9.3-9.3,9.3s-9.3-4.2-9.3-9.3S623.6,451.8,628.7,451.8z M611.3,558.8c5.1,0,9.3,4.2,9.3,9.3s-4.2,9.3-9.3,9.3
	s-9.3-4.2-9.3-9.3S606.2,558.8,611.3,558.8z M486.8,337.3c5.1,0,9.3,4.2,9.3,9.3s-4.2,9.3-9.3,9.3s-9.3-4.2-9.3-9.3
	S481.7,337.3,486.8,337.3z M381,350.9c5.1,0,9.3,4.2,9.3,9.3s-4.2,9.3-9.3,9.3s-9.3-4.2-9.3-9.3S375.9,350.9,381,350.9z
	 M183.1,324.8c5.1,0,9.3,4.2,9.3,9.3s-4.2,9.3-9.3,9.3s-9.3-4.2-9.3-9.3S178,324.8,183.1,324.8z M403.4,690.8c5.1,0,9.3,4.2,9.3,9.3
	s-4.2,9.3-9.3,9.3s-9.3-4.2-9.3-9.3S398.3,690.8,403.4,690.8z M320,602.4c5.1,0,9.3,4.2,9.3,9.3s-4.2,9.3-9.3,9.3s-9.3-4.2-9.3-9.3
	S314.9,602.4,320,602.4z M517.9,461.7c5.1,0,9.3,4.2,9.3,9.3s-4.2,9.3-9.3,9.3s-9.3-4.2-9.3-9.3S512.8,461.7,517.9,461.7z
	 M814.2,510.3c5.1,0,9.3,4.2,9.3,9.3s-4.2,9.3-9.3,9.3s-9.3-4.2-9.3-9.3S809.1,510.3,814.2,510.3z M720.8,482.9
	c5.1,0,9.3,4.2,9.3,9.3s-4.2,9.3-9.3,9.3s-9.3-4.2-9.3-9.3S715.7,482.9,720.8,482.9z M694.7,359.7c5.1,0,9.3,4.2,9.3,9.3
	s-4.2,9.3-9.3,9.3s-9.3-4.2-9.3-9.3S689.6,359.7,694.7,359.7z M826.6,624.8c5.1,0,9.3,4.2,9.3,9.3s-4.2,9.3-9.3,9.3
	s-9.3-4.2-9.3-9.3S821.5,624.8,826.6,624.8z M787.9,755.6c5.1,0,9.3,4.2,9.3,9.3s-4.2,9.3-9.3,9.3s-9.3-4.2-9.3-9.3
	S782.8,755.6,787.9,755.6z M87.2,413.8l8,8l-11.7,11.7l11.7,11.7l-8,8l-11.7-11.7l-11.8,11.8l-8-8l11.8-11.8l-11.8-11.8l8-8
	l11.8,11.8L87.2,413.8z M268.9,383.9l8,8l-11.7,11.7l11.7,11.7l-8,8l-11.7-11.7l-11.8,11.8l-8-8l11.8-11.8l-11.8-11.8l8-8l11.8,11.8
	L268.9,383.9z M47.2,661.5l8,8l-11.7,11.7l11.7,11.7l-8,8l-11.7-11.7L23.7,701l-8-8l11.8-11.8l-11.8-11.8l8-8l11.8,11.8L47.2,661.5z
	 M190.5,621.7l8,8l-11.7,11.7l11.7,11.7l-8,8l-11.7-11.7L167,661.2l-8-8l11.8-11.8L159,629.6l8-8l11.8,11.8L190.5,621.7z M905,820
	l8,8l-11.7,11.7l11.7,11.7l-8,8l-11.7-11.7l-11.8,11.8l-8-8l11.8-11.8l-11.8-11.8l8-8l11.8,11.8L905,820z M642.9,690.5v11.4h-16.5
	v16.5h-11.3v-16.5h-16.6v-11.4h16.6v-16.6h11.3v16.6H642.9z M818.4,376.8v11.4h-16.5v16.5h-11.3v-16.5H774v-11.4h16.6v-16.6h11.3
	v16.6H818.4z M753.7,612.1v11.4h-16.5V640h-11.3v-16.5h-16.6v-11.4h16.6v-16.6h11.3v16.6H753.7z M512.2,602.1v11.4h-16.5V630h-11.3
	v-16.5h-16.6v-11.4h16.6v-16.6h11.3v16.6H512.2z M1549.8,1726.8c0,13.8-11.1,24.9-24.9,24.9s-24.9-11.1-24.9-24.9
	s11.1-24.9,24.9-24.9C1538.7,1701.9,1549.8,1713,1549.8,1726.8z M873.9,1527c0,5.1-4.2,9.3-9.3,9.3s-9.3-4.2-9.3-9.3
	s4.2-9.3,9.3-9.3S873.9,1521.9,873.9,1527z M993.4,1593c0,5.1-4.2,9.3-9.3,9.3s-9.3-4.2-9.3-9.3s4.2-9.3,9.3-9.3
	S993.4,1587.9,993.4,1593z M948.6,1717.5c0,5.1-4.2,9.3-9.3,9.3s-9.3-4.2-9.3-9.3s4.2-9.3,9.3-9.3S948.6,1712.4,948.6,1717.5z
	 M844,1795.9c0,5.1-4.2,9.3-9.3,9.3s-9.3-4.2-9.3-9.3s4.2-9.3,9.3-9.3S844,1790.8,844,1795.9z M759.4,1535.7c0,5.1-4.2,9.3-9.3,9.3
	s-9.3-4.2-9.3-9.3c0-5.1,4.2-9.3,9.3-9.3S759.4,1530.6,759.4,1535.7z M1239.8,1743.6c0,5.1-4.2,9.3-9.3,9.3s-9.3-4.2-9.3-9.3
	s4.2-9.3,9.3-9.3S1239.8,1738.5,1239.8,1743.6z M1373,1712.5c0,5.1-4.2,9.3-9.3,9.3c-5.1,0-9.3-4.2-9.3-9.3s4.2-9.3,9.3-9.3
	S1373,1707.4,1373,1712.5z M39.9,1712.5c0,5.1-4.2,9.3-9.3,9.3s-9.3-4.2-9.3-9.3s4.2-9.3,9.3-9.3S39.9,1707.4,39.9,1712.5z
	 M124.5,1717.5c0,5.1-4.2,9.3-9.3,9.3s-9.3-4.2-9.3-9.3s4.2-9.3,9.3-9.3S124.5,1712.4,124.5,1717.5z M450.7,1672.6
	c0,5.1-4.2,9.3-9.3,9.3s-9.3-4.2-9.3-9.3s4.2-9.3,9.3-9.3S450.7,1667.5,450.7,1672.6z M339.9,1721.2c0,5.1-4.2,9.3-9.3,9.3
	s-9.3-4.2-9.3-9.3c0-5.1,4.2-9.3,9.3-9.3S339.9,1716.1,339.9,1721.2z M534.1,1584.3c0,5.1-4.2,9.3-9.3,9.3s-9.3-4.2-9.3-9.3
	s4.2-9.3,9.3-9.3S534.1,1579.2,534.1,1584.3z M1285.8,1601l11.8-11.8l8,8l-11.8,11.8l11.8,11.8l-8,8l-11.8-11.8l-11.7,11.7l-8-8
	l11.7-11.7l-11.7-11.7l8-8L1285.8,1601z M828.9,1645.8l11.8-11.8l8,8l-11.8,11.8l11.8,11.8l-8,8l-11.8-11.8l-11.6,11.7l-8-8
	l11.7-11.7l-11.7-11.7l8-8L828.9,1645.8z M666,1606l11.8-11.8l8,8L674,1614l11.8,11.8l-8,8L666,1622l-11.7,11.7l-8-8L658,1614
	l-11.7-11.7l8-8L666,1606z M218.4,1663.1v-16.6h11.3v16.6h16.6v11.4h-16.6v16.5h-11.3v-16.5h-16.5v-11.4H218.4z M1064.8,1730.3
	v-16.6h11.3v16.6h16.6v11.4h-16.6v16.5h-11.3v-16.5h-16.5v-11.4H1064.8z M1110.6,1612h16.5v-16.6h11.3v16.7h16.6v11.4h-16.6v16.5
	h-11.3v-16.5h-16.5V1612L1110.6,1612z M1012.3,1321.6h16.5V1305h11.3v16.7h16.6v11.4h-16.6v16.5h-11.3v-16.5h-16.5L1012.3,1321.6
	L1012.3,1321.6z M911.4,952h16.5v-16.6h11.3v16.7h16.6v11.4h-16.6V980h-11.3v-16.5h-16.5V952L911.4,952z M366.4,842.7h16.5v-16.6
	h11.3v16.7h16.6v11.4h-16.6v16.5h-11.3v-16.5h-16.5V842.7L366.4,842.7z M360.7,1608.3v-16.6H372v16.6h16.6v11.4H372v16.5h-11.3
	v-16.5h-16.5v-11.4H360.7z M700.3,1966c0,13.8-11.1,24.9-24.9,24.9s-24.9-11.1-24.9-24.9s11.1-24.9,24.9-24.9
	S700.3,1952.2,700.3,1966z M538.4,1961c0,13.8-11.1,24.9-24.9,24.9s-24.9-11.1-24.9-24.9s11.1-24.9,24.9-24.9
	S538.4,1947.2,538.4,1961z M700.3,2190c0,13.8-11.1,24.9-24.9,24.9s-24.9-11.1-24.9-24.9s11.1-24.9,24.9-24.9
	S700.3,2176.2,700.3,2190z M600.7,1797.9c0,13.8-11.1,24.9-24.9,24.9c-13.8,0-24.9-11.1-24.9-24.9s11.1-24.9,24.9-24.9
	C589.6,1773,600.7,1784.1,600.7,1797.9z M67.9,2012c0,5.1-4.2,9.3-9.3,9.3s-9.3-4.2-9.3-9.3s4.2-9.3,9.3-9.3S67.9,2006.9,67.9,2012z
	 M86.6,1939.2c0,5.1-4.2,9.3-9.3,9.3s-9.3-4.2-9.3-9.3c0-5.1,4.2-9.3,9.3-9.3S86.6,1934.1,86.6,1939.2z M131.4,2079.9
	c0,5.1-4.2,9.3-9.3,9.3s-9.3-4.2-9.3-9.3s4.2-9.3,9.3-9.3S131.4,2074.8,131.4,2079.9z M86.6,2204.3c0,5.1-4.2,9.3-9.3,9.3
	s-9.3-4.2-9.3-9.3s4.2-9.3,9.3-9.3S86.6,2199.2,86.6,2204.3z M34.3,1811c0,5.1-4.2,9.3-9.3,9.3s-9.3-4.2-9.3-9.3s4.2-9.3,9.3-9.3
	S34.3,1805.9,34.3,1811z M211,1965.4c0,5.1-4.2,9.3-9.3,9.3s-9.3-4.2-9.3-9.3s4.2-9.3,9.3-9.3S211,1960.3,211,1965.4z M580.7,2088.6
	c0,5.1-4.2,9.3-9.3,9.3s-9.3-4.2-9.3-9.3s4.2-9.3,9.3-9.3S580.7,2083.5,580.7,2088.6z M511,2199.4c0,5.1-4.2,9.3-9.3,9.3
	s-9.3-4.2-9.3-9.3s4.2-9.3,9.3-9.3S511,2194.3,511,2199.4z M713.9,2093.6c0,5.1-4.2,9.3-9.3,9.3s-9.3-4.2-9.3-9.3s4.2-9.3,9.3-9.3
	S713.9,2088.5,713.9,2093.6z M423.9,2087.9l11.8-11.8l8,8l-11.8,11.8l11.8,11.8l-8,8l-11.8-11.8l-11.7,11.7l-8-8l11.7-11.7
	l-11.7-11.7l8-8L423.9,2087.9z M426.3,1824l11.8-11.8l8,8l-11.8,11.8l11.8,11.8l-8,8l-11.8-11.8l-11.7,11.7l-8-8l11.7-11.7
	l-11.7-11.7l8-8L426.3,1824z M706.3,1809l11.8-11.8l8,8l-11.8,11.8l11.8,11.8l-8,8l-11.7-11.7l-11.7,11.7l-8-8l11.7-11.7l-11.7-11.7
	l8-8L706.3,1809z M158.7,1817.8l11.8-11.8l8,8l-11.8,11.8l11.8,11.8l-8,8l-11.8-11.8l-11.7,11.7l-8-8l11.7-11.7l-11.7-11.7l8-8
	L158.7,1817.8z M290.7,1820.3l11.8-11.8l8,8l-11.8,11.8l11.8,11.8l-8,8l-11.8-11.8L279,1848l-8-8l11.7-11.7l-11.7-11.7l8-8
	L290.7,1820.3z M346.7,1955.9l11.8-11.8l8,8l-11.8,11.8l11.8,11.8l-8,8l-11.8-11.8l-11.7,11.7l-8-8l11.7-11.7l-11.7-11.7l8-8
	L346.7,1955.9z M196.2,2177.4v-16.6h11.3v16.6h16.6v11.4h-16.6v16.5h-11.3v-16.5h-16.5v-11.4H196.2z M248.6,2098.9h16.5v-16.6h11.3
	v16.6H293v11.4h-16.6v16.5h-11.3v-16.4h-16.5V2099V2098.9z M1240.5,1998.3c0,13.8-11.1,24.9-24.9,24.9s-24.9-11.1-24.9-24.9
	s11.1-24.9,24.9-24.9S1240.5,1984.5,1240.5,1998.3z M1511.8,2064.9c0,5.1-4.2,9.3-9.3,9.3s-9.3-4.2-9.3-9.3s4.2-9.3,9.3-9.3
	S1511.8,2059.8,1511.8,2064.9z M1392.3,2016.4c0,5.1-4.2,9.3-9.3,9.3s-9.3-4.2-9.3-9.3c0-5.1,4.2-9.3,9.3-9.3
	S1392.3,2011.3,1392.3,2016.4z M1016.4,1857.1c0,5.1-4.2,9.3-9.3,9.3s-9.3-4.2-9.3-9.3s4.2-9.3,9.3-9.3S1016.4,1852,1016.4,1857.1z
	 M977.8,1962.9c0,5.1-4.2,9.3-9.3,9.3s-9.3-4.2-9.3-9.3s4.2-9.3,9.3-9.3S977.8,1957.8,977.8,1962.9z M995.2,2069.9
	c0,5.1-4.2,9.3-9.3,9.3s-9.3-4.2-9.3-9.3s4.2-9.3,9.3-9.3S995.2,2064.8,995.2,2069.9z M1119.7,1848.4c0,5.1-4.2,9.3-9.3,9.3
	s-9.3-4.2-9.3-9.3s4.2-9.3,9.3-9.3S1119.7,1843.3,1119.7,1848.4z M1225.5,1862c0,5.1-4.2,9.3-9.3,9.3c-5.1,0-9.3-4.2-9.3-9.3
	s4.2-9.3,9.3-9.3S1225.5,1856.9,1225.5,1862z M1423.4,1835.9c0,5.1-4.2,9.3-9.3,9.3s-9.3-4.2-9.3-9.3s4.2-9.3,9.3-9.3
	S1423.4,1830.8,1423.4,1835.9z M1203.1,2201.9c0,5.1-4.2,9.3-9.3,9.3c-5.1,0-9.3-4.2-9.3-9.3s4.2-9.3,9.3-9.3
	C1198.9,2192.6,1203.1,2196.8,1203.1,2201.9z M1286.5,2113.5c0,5.1-4.2,9.3-9.3,9.3c-5.1,0-9.3-4.2-9.3-9.3s4.2-9.3,9.3-9.3
	S1286.5,2108.4,1286.5,2113.5z M1088.6,1972.8c0,5.1-4.2,9.3-9.3,9.3s-9.3-4.2-9.3-9.3c0-5.1,4.2-9.3,9.3-9.3
	S1088.6,1967.7,1088.6,1972.8z M792.3,2021.4c0,5.1-4.2,9.3-9.3,9.3s-9.3-4.2-9.3-9.3s4.2-9.3,9.3-9.3S792.3,2016.3,792.3,2021.4z
	 M885.7,1994c0,5.1-4.2,9.3-9.3,9.3s-9.3-4.2-9.3-9.3s4.2-9.3,9.3-9.3S885.7,1988.9,885.7,1994z M911.8,1870.8
	c0,5.1-4.2,9.3-9.3,9.3s-9.3-4.2-9.3-9.3c0-5.1,4.2-9.3,9.3-9.3S911.8,1865.7,911.8,1870.8z M779.9,2135.9c0,5.1-4.2,9.3-9.3,9.3
	s-9.3-4.2-9.3-9.3s4.2-9.3,9.3-9.3S779.9,2130.8,779.9,2135.9z M1521.7,1927.3l11.8-11.8l8,8l-11.8,11.8l11.8,11.8l-8,8l-11.8-11.8
	L1510,1955l-8-8l11.7-11.7l-11.7-11.7l8-8L1521.7,1927.3z M1340,1897.4l11.8-11.8l8,8l-11.8,11.8l11.8,11.8l-8,8l-11.8-11.8
	l-11.7,11.7l-8-8l11.7-11.7l-11.7-11.7l8-8L1340,1897.4z M1561.7,2175l11.8-11.8l8,8l-11.8,11.8l11.8,11.8l-8,8l-11.8-11.8
	l-11.7,11.7l-8-8l11.7-11.7l-11.7-11.7l8-8L1561.7,2175z M1418.4,2135.2l11.8-11.8l8,8l-11.8,11.8l11.8,11.8l-8,8l-11.8-11.8
	l-11.7,11.7l-8-8l11.7-11.7l-11.7-11.7l8-8L1418.4,2135.2z M1470.5,1469.8c0,5.1-4.2,9.3-9.3,9.3c-5.1,0-9.3-4.2-9.3-9.3
	s4.2-9.3,9.3-9.3S1470.5,1464.7,1470.5,1469.8z M1351,1421.3c0,5.1-4.2,9.3-9.3,9.3c-5.1,0-9.3-4.2-9.3-9.3s4.2-9.3,9.3-9.3
	S1351,1416.2,1351,1421.3z M1245.2,1518.4c0,5.1-4.2,9.3-9.3,9.3s-9.3-4.2-9.3-9.3s4.2-9.3,9.3-9.3S1245.2,1513.3,1245.2,1518.4z
	 M1520.4,1579.9l11.8-11.8l8,8l-11.8,11.8l11.8,11.8l-8,8l-11.8-11.8l-11.7,11.7l-8-8l11.7-11.7l-11.7-11.7l8-8L1520.4,1579.9z
	 M1377.1,1540.1l11.8-11.8l8,8l-11.8,11.8l11.8,11.8l-8,8l-11.8-11.8l-11.7,11.7l-8-8l11.7-11.7l-11.7-11.7l8-8L1377.1,1540.1z
	 M970.8,2192.3v-16.6h11.3v16.6h16.6v11.4h-16.6v16.5h-11.3v-16.5h-16.5v-11.4H970.8z M795.3,1878.6V1862h11.3v16.6h16.6v11.4h-16.6
	v16.5h-11.3V1890h-16.5v-11.4H795.3z M860,2113.9v-16.6h11.3v16.6h16.6v11.4h-16.6v16.5H860v-16.5h-16.5v-11.4H860z M1101.5,2103.9
	v-16.6h11.3v16.6h16.6v11.4h-16.6v16.5h-11.3v-16.5H1085v-11.4H1101.5z M1189.1,1422.5c-13.8,0-24.9-11.1-24.9-24.9
	s11.1-24.9,24.9-24.9s24.9,11.1,24.9,24.9C1214,1411.3,1202.9,1422.5,1189.1,1422.5z M405.9,1581.8c-5.1,0-9.3-4.2-9.3-9.3
	c0-5.1,4.2-9.3,9.3-9.3s9.3,4.2,9.3,9.3C415.2,1577.6,411,1581.8,405.9,1581.8z M525.4,1515.8c-5.1,0-9.3-4.2-9.3-9.3
	c0-5.1,4.2-9.3,9.3-9.3s9.3,4.2,9.3,9.3C534.7,1511.6,530.5,1515.8,525.4,1515.8z M480.6,1391.3c-5.1,0-9.3-4.2-9.3-9.3
	c0-5.1,4.2-9.3,9.3-9.3s9.3,4.2,9.3,9.3C489.9,1387.1,485.7,1391.3,480.6,1391.3z M376,1312.9c-5.1,0-9.3-4.2-9.3-9.3
	c0-5.1,4.2-9.3,9.3-9.3s9.3,4.2,9.3,9.3C385.3,1308.7,381.1,1312.9,376,1312.9z M291.4,1573.1c-5.1,0-9.3-4.2-9.3-9.3
	s4.2-9.3,9.3-9.3s9.3,4.2,9.3,9.3S296.5,1573.1,291.4,1573.1z M771.8,1365.2c-5.1,0-9.3-4.2-9.3-9.3s4.2-9.3,9.3-9.3
	s9.3,4.2,9.3,9.3S776.9,1365.2,771.8,1365.2z M905,1396.3c-5.1,0-9.3-4.2-9.3-9.3c0-5.1,4.2-9.3,9.3-9.3s9.3,4.2,9.3,9.3
	C914.3,1392.1,910.1,1396.3,905,1396.3z M1170.4,1286.8c-5.1,0-9.3-4.2-9.3-9.3s4.2-9.3,9.3-9.3s9.3,4.2,9.3,9.3
	S1175.5,1286.8,1170.4,1286.8z M1255,1281.8c-5.1,0-9.3-4.2-9.3-9.3s4.2-9.3,9.3-9.3s9.3,4.2,9.3,9.3S1260.1,1281.8,1255,1281.8z
	 M1581.2,1326.7c-5.1,0-9.3-4.2-9.3-9.3s4.2-9.3,9.3-9.3s9.3,4.2,9.3,9.3S1586.3,1326.7,1581.2,1326.7z M1470.4,1278.1
	c-5.1,0-9.3-4.2-9.3-9.3s4.2-9.3,9.3-9.3s9.3,4.2,9.3,9.3S1475.5,1278.1,1470.4,1278.1z M66.1,1524.5c-5.1,0-9.3-4.2-9.3-9.3
	s4.2-9.3,9.3-9.3s9.3,4.2,9.3,9.3S71.2,1524.5,66.1,1524.5z M815.4,1510.2l-8-8l11.7-11.7l-11.7-11.7l8-8l11.7,11.7l11.8-11.8l8,8
	l-11.8,11.8l11.8,11.8l-8,8l-11.8-11.8L815.4,1510.2z M1022.8,1510.2l-8-8l11.7-11.7l-11.7-11.7l8-8l11.7,11.7l11.8-11.8l8,8
	l-11.8,11.8l11.8,11.8l-8,8l-11.8-11.8L1022.8,1510.2z M358.6,1465.4l-8-8l11.7-11.7l-11.7-11.7l8-8l11.6,11.7l11.8-11.8l8,8
	l-11.8,11.8l11.8,11.8l-8,8l-11.8-11.8L358.6,1465.4z M195.6,1505.2l-8-8l11.7-11.7l-11.7-11.7l8-8l11.7,11.7l11.8-11.8l8,8
	l-11.8,11.8l11.8,11.8l-8,8l-11.8-11.8L195.6,1505.2z M1341.7,1326.9v-11.4h16.5V1299h11.3v16.5h16.6v11.4h-16.6v16.6h-11.3v-16.6
	H1341.7z M589.6,1369.2v-11.4h16.5v-16.5h11.3v16.5H634v11.4h-16.6v16.6h-11.3v-16.6H589.6z M651.9,1487.4V1476h16.5v-16.5h11.3
	v16.5h16.6v11.4h-16.6v16.7h-11.3v-16.6L651.9,1487.4L651.9,1487.4z M1484,1381.7v-11.4h16.5v-16.5h11.3v16.5h16.6v11.4h-16.6v16.6
	h-11.3v-16.6H1484z M216.7,1158.4c-13.8,0-24.9-11.1-24.9-24.9s11.1-24.9,24.9-24.9s24.9,11.1,24.9,24.9
	C241.6,1147.2,230.5,1158.4,216.7,1158.4z M54.8,1163.4c-13.8,0-24.9-11.1-24.9-24.9s11.1-24.9,24.9-24.9s24.9,11.1,24.9,24.9
	C79.7,1152.2,68.6,1163.4,54.8,1163.4z M216.7,934.4c-13.8,0-24.9-11.1-24.9-24.9s11.1-24.9,24.9-24.9s24.9,11.1,24.9,24.9
	S230.5,934.4,216.7,934.4z M228,819.9c-13.8,0-24.9-11.1-24.9-24.9s11.1-24.9,24.9-24.9s24.9,11.1,24.9,24.9S241.8,819.9,228,819.9z
	 M117.1,1326.5c-13.8,0-24.9-11.1-24.9-24.9s11.1-24.9,24.9-24.9s24.9,11.1,24.9,24.9C142,1315.3,130.9,1326.5,117.1,1326.5z
	 M1198.4,987.3c-5.1,0-9.3-4.2-9.3-9.3s4.2-9.3,9.3-9.3s9.3,4.2,9.3,9.3C1207.7,983.2,1203.5,987.3,1198.4,987.3z M1217.1,1060.1
	c-5.1,0-9.3-4.2-9.3-9.3s4.2-9.3,9.3-9.3s9.3,4.2,9.3,9.3S1222.2,1060.1,1217.1,1060.1z M1261.9,919.4c-5.1,0-9.3-4.2-9.3-9.3
	s4.2-9.3,9.3-9.3s9.3,4.2,9.3,9.3S1267,919.4,1261.9,919.4z M1217.1,795c-5.1,0-9.3-4.2-9.3-9.3s4.2-9.3,9.3-9.3s9.3,4.2,9.3,9.3
	S1222.2,795,1217.1,795z M1164.8,1188.3c-5.1,0-9.3-4.2-9.3-9.3s4.2-9.3,9.3-9.3s9.3,4.2,9.3,9.3S1169.9,1188.3,1164.8,1188.3z
	 M1341.5,1033.9c-5.1,0-9.3-4.2-9.3-9.3c0-5.1,4.2-9.3,9.3-9.3s9.3,4.2,9.3,9.3C1350.8,1029.8,1346.6,1033.9,1341.5,1033.9z
	 M112.7,1020.2c-5.1,0-9.3-4.2-9.3-9.3s4.2-9.3,9.3-9.3s9.3,4.2,9.3,9.3S117.8,1020.2,112.7,1020.2z M43,909.4
	c-5.1,0-9.3-4.2-9.3-9.3s4.2-9.3,9.3-9.3s9.3,4.2,9.3,9.3S48.1,909.4,43,909.4z M245.9,1015.2c-5.1,0-9.3-4.2-9.3-9.3
	s4.2-9.3,9.3-9.3s9.3,4.2,9.3,9.3S251,1015.2,245.9,1015.2z M1552,913.8l-8-8l11.7-11.7l-11.7-11.7l8-8l11.7,11.7l11.8-11.8l8,8
	l-11.8,11.8l11.8,11.8l-8,8l-11.8-11.8L1552,913.8z M1554.4,1177.7l-8-8l11.7-11.7l-11.7-11.7l8-8l11.7,11.7l11.8-11.8l8,8
	l-11.8,11.8l11.8,11.8l-8,8l-11.8-11.8L1554.4,1177.7z M236,1302.1l-8-8l11.7-11.7l-11.7-11.7l8-8l11.7,11.7l11.7-11.7l8,8
	l-11.8,11.8l11.8,11.8l-8,8l-11.8-11.8L236,1302.1z M1286.8,1183.9l-8-8l11.7-11.7l-11.7-11.7l8-8l11.7,11.7l11.8-11.8l8,8
	l-11.8,11.8l11.8,11.8l-8,8l-11.8-11.8L1286.8,1183.9z M1418.8,1181.4l-8-8l11.7-11.7l-11.7-11.7l8-8l11.7,11.7l11.8-11.8l8,8
	l-11.8,11.8l11.8,11.8l-8,8l-11.8-11.8L1418.8,1181.4z M1474.8,1045.8l-8-8l11.7-11.7l-11.7-11.7l8-8l11.7,11.7l11.8-11.8l8,8
	l-11.8,11.8l11.8,11.8l-8,8l-11.8-11.8L1474.8,1045.8z M1319.5,812.6v-11.4h16.5v-16.5h11.3v16.5h16.6v11.4h-16.6v16.6H1336v-16.6
	H1319.5z M1388.4,891v-11.4h16.5v-16.4h11.3v16.5h16.6v11.4h-16.6v16.6h-11.3v-16.6L1388.4,891L1388.4,891z M756.9,1126.1
	c-13.8,0-24.9-11.1-24.9-24.9s11.1-24.9,24.9-24.9s24.9,11.1,24.9,24.9C781.8,1114.9,770.7,1126.1,756.9,1126.1z M517.8,795
	c-13.8,0-24.9-11.1-24.9-24.9s11.1-24.9,24.9-24.9s24.9,11.1,24.9,24.9S531.6,795,517.8,795z M1043.8,1043.9c-5.1,0-9.3-4.2-9.3-9.3
	s4.2-9.3,9.3-9.3s9.3,4.2,9.3,9.3S1048.9,1043.9,1043.8,1043.9z M924.3,1092.4c-5.1,0-9.3-4.2-9.3-9.3s4.2-9.3,9.3-9.3
	s9.3,4.2,9.3,9.3S929.4,1092.4,924.3,1092.4z M548.4,1251.7c-5.1,0-9.3-4.2-9.3-9.3c0-5.1,4.2-9.3,9.3-9.3s9.3,4.2,9.3,9.3
	S553.5,1251.7,548.4,1251.7z M509.8,1145.9c-5.1,0-9.3-4.2-9.3-9.3c0-5.1,4.2-9.3,9.3-9.3s9.3,4.2,9.3,9.3
	C519.1,1141.7,514.9,1145.9,509.8,1145.9z M527.2,1038.9c-5.1,0-9.3-4.2-9.3-9.3s4.2-9.3,9.3-9.3s9.3,4.2,9.3,9.3
	S532.3,1038.9,527.2,1038.9z M651.7,1260.4c-5.1,0-9.3-4.2-9.3-9.3c0-5.1,4.2-9.3,9.3-9.3s9.3,4.2,9.3,9.3
	C661,1256.2,656.8,1260.4,651.7,1260.4z M757.5,1246.8c-5.1,0-9.3-4.2-9.3-9.3c0-5.1,4.2-9.3,9.3-9.3s9.3,4.2,9.3,9.3
	C766.8,1242.6,762.6,1246.8,757.5,1246.8z M955.4,1272.9c-5.1,0-9.3-4.2-9.3-9.3c0-5.1,4.2-9.3,9.3-9.3s9.3,4.2,9.3,9.3
	C964.7,1268.7,960.5,1272.9,955.4,1272.9z M735.1,906.9c-5.1,0-9.3-4.2-9.3-9.3s4.2-9.3,9.3-9.3s9.3,4.2,9.3,9.3
	S740.2,906.9,735.1,906.9z M818.5,995.3c-5.1,0-9.3-4.2-9.3-9.3s4.2-9.3,9.3-9.3s9.3,4.2,9.3,9.3S823.6,995.3,818.5,995.3z
	 M620.6,1136c-5.1,0-9.3-4.2-9.3-9.3s4.2-9.3,9.3-9.3s9.3,4.2,9.3,9.3S625.7,1136,620.6,1136z M324.3,1087.4c-5.1,0-9.3-4.2-9.3-9.3
	s4.2-9.3,9.3-9.3s9.3,4.2,9.3,9.3S329.4,1087.4,324.3,1087.4z M417.7,1114.8c-5.1,0-9.3-4.2-9.3-9.3c0-5.1,4.2-9.3,9.3-9.3
	s9.3,4.2,9.3,9.3C427,1110.6,422.8,1114.8,417.7,1114.8z M443.8,1238c-5.1,0-9.3-4.2-9.3-9.3s4.2-9.3,9.3-9.3s9.3,4.2,9.3,9.3
	S448.9,1238,443.8,1238z M311.9,972.9c-5.1,0-9.3-4.2-9.3-9.3s4.2-9.3,9.3-9.3s9.3,4.2,9.3,9.3S317,972.9,311.9,972.9z
	 M1051.3,1183.9l-8-8l11.7-11.7l-11.7-11.7l8-8l11.7,11.7l11.8-11.8l8,8l-11.8,11.8l11.8,11.8l-8,8l-11.8-11.8L1051.3,1183.9z
	 M869.6,1213.8l-8-8l11.7-11.7l-11.7-11.7l8-8l11.7,11.7l11.8-11.8l8,8l-11.8,11.8l11.8,11.8l-8,8l-11.8-11.8L869.6,1213.8z
	 M671.2,826.7l-8-8l11.7-11.7l-11.7-11.7l8-8l11.7,11.7l11.8-11.8l8,8L690.9,807l11.8,11.8l-8,8L682.9,815L671.2,826.7z M1058.8,974
	l-8-8l11.7-11.7l-11.7-11.7l8-8l11.7,11.7l11.8-11.8l8,8l-11.8,11.8l11.8,11.8l-8,8l-11.8-11.8L1058.8,974z M495.6,907.2v-11.4h16.5
	v-16.5h11.3v16.5H540v11.4h-16.6v16.6h-11.3v-16.6H495.6z M320.1,1220.9v-11.4h16.5V1193h11.3v16.5h16.6v11.4h-16.6v16.6h-11.3
	v-16.6H320.1z M384.8,985.6v-11.4h16.5v-16.5h11.3v16.5h16.6v11.4h-16.6v16.6h-11.3v-16.6H384.8z M81.8,800.7v-11.4h16.5v-16.5h11.3
	v16.5h16.6v11.4h-16.6v16.6H98.3v-16.6H81.8z M626.3,995.6v-11.4h16.5v-16.5h11.3v16.5h16.6v11.4h-16.6v16.6h-11.3v-16.6H626.3z"/>
</svg>
